<?xml version="1.0" encoding="iso-8859-1"?>
<!-- Generator: Adobe Illustrator 19.0.0, SVG Export Plug-In . SVG Version: 6.00 Build 0)  -->
<svg version="1.1" id="Layer_1" xmlns="http://www.w3.org/2000/svg" xmlns:xlink="http://www.w3.org/1999/xlink" x="0px" y="0px"
	 viewBox="0 0 512 512" style="enable-background:new 0 0 512 512;" xml:space="preserve">
<g>
	<g>
		<path d="M79.778,370.614v119.81c0,11.917,9.659,21.576,21.576,21.576c11.917,0,21.576-9.659,21.576-21.576v-119.81H79.778z"/>
	</g>
</g>
<g>
	<g>
		<path d="M132.245,370.614v119.81c0,11.917,9.659,21.576,21.576,21.576c11.917,0,21.576-9.659,21.576-21.576v-119.81H132.245z"/>
	</g>
</g>
<g>
	<g>
		<path d="M163.355,86.086c-9.793-5.781-16.751-11.56-35.967-11.56c-18.549,0-25.6,5.451-35.434,11.061
			c-7.33,23.91,10.559,48.198,35.629,48.198C152.443,133.785,170.292,109.906,163.355,86.086z"/>
	</g>
</g>
<g>
	<g>
		<path d="M175.941,145.662c-52.412,0-53.115,0-96.716,0c-23.344,0-42.432,18.992-42.548,42.335l-0.664,132.09
			c-0.05,9.931,7.959,18.021,17.889,18.071c0.03,0,0.061,0,0.093,0c9.887,0,17.928-7.99,17.977-17.889l0.664-132.092
			c0.01-1.968,1.61-3.555,3.577-3.55c1.967,0.006,3.558,1.601,3.558,3.568v75.811h95.236v-76.37c0-2.081,1.687-3.766,3.766-3.768
			c2.081,0,3.768,1.686,3.769,3.765c0,0.142-0.003,0.287-0.009,0.435l-0.122,132.09c-0.009,9.931,8.033,17.987,17.964,17.996
			c0.006,0,0.011,0,0.017,0c9.922,0,17.971-8.039,17.979-17.964l0.121-132.196C218.372,164.653,199.285,145.662,175.941,145.662z
			 M113.435,222.865c-2.993,0-5.419-2.426-5.419-5.419s2.426-5.419,5.419-5.419s5.419,2.427,5.419,5.419
			S116.427,222.865,113.435,222.865z M113.435,196.756c-2.993,0-5.419-2.426-5.419-5.419c0-2.993,2.426-5.419,5.419-5.419
			s5.419,2.427,5.419,5.419S116.427,196.756,113.435,196.756z M113.435,170.644c-2.787,0-5.419-2.304-5.419-5.419
			c-0.001-3.014,2.515-5.419,5.419-5.419c2.993,0,5.419,2.426,5.419,5.419C118.854,168.219,116.428,170.644,113.435,170.644z
			 M141.343,222.865c-2.993,0-5.419-2.426-5.419-5.419s2.426-5.419,5.419-5.419c2.993,0,5.419,2.427,5.419,5.419
			S144.334,222.865,141.343,222.865z M141.343,196.756c-2.993,0-5.419-2.426-5.419-5.419c0-2.993,2.426-5.419,5.419-5.419
			c2.993,0,5.419,2.427,5.419,5.419S144.334,196.756,141.343,196.756z M141.343,170.644c-2.993,0-5.419-2.426-5.419-5.419
			c-0.001-2.992,2.426-5.419,5.419-5.419c2.993,0,5.419,2.426,5.419,5.419C146.761,168.219,144.335,170.644,141.343,170.644z"/>
	</g>
</g>
<g>
	<g>
		<path d="M148.272,0c-3.451,0-6.719,0.765-9.649,2.133c-6.975,3.259-15.034,3.254-22.009-0.002C113.684,0.764,110.416,0,106.968,0
			C94.319,0,84.066,10.254,84.066,22.902c0,0.544,0.044,1.076,0.081,1.61c0.537,7.717,4.887,14.366,11.189,18.094v26.305
			c7.71-4.399,19.205-7.193,32.051-7.193c13.104,0,24.805,2.906,32.515,7.457V42.606c6.302-3.728,10.652-10.377,11.19-18.094
			c0.037-0.535,0.081-1.067,0.081-1.61C171.174,10.254,160.921,0,148.272,0z"/>
	</g>
</g>
<g>
	<g>
		<path d="M400.031,87.785c-5.425-3.204-14.829-10.231-36.537-10.231c-21.167,0-30.674,6.773-35.91,9.76
			c-5.885,23.628,12.025,46.317,36.169,46.317C387.698,133.631,405.566,111.303,400.031,87.785z"/>
	</g>
</g>
<g>
	<g>
		<path d="M435.118,348.037l-16.518-85.28h-18.207l7.692,44.768c0.931,5.421-3.251,10.327-8.695,10.327h-71.275
			c-5.434,0-9.624-4.921-8.695-10.327l7.692-44.768h-18.207l-16.517,85.28c-1.199,6.187,3.57,11.903,9.81,11.903
			c3.869,0,8.53,0,13.725,0v130.475c0,11.921,9.664,21.585,21.585,21.585s21.585-9.664,21.585-21.585V359.94
			c3.103,0,6.216,0,9.319,0v130.475c0,11.921,9.664,21.585,21.585,21.585s21.585-9.664,21.585-21.585V359.94
			c5.196,0,9.857,0,13.725,0C431.58,359.94,436.315,354.217,435.118,348.037z"/>
	</g>
</g>
<g>
	<g>
		<path d="M474.969,292.125c-0.332-0.948-33.28-94.93-38.466-110.014c-8.344-24.285-22.336-36.599-41.589-36.599
			c-26.789,0-35.707,0-62.654,0c-19.253,0-33.245,12.314-41.589,36.597c-5.185,15.087-38.135,109.069-38.467,110.017
			c-3.286,9.374,1.649,19.638,11.022,22.924c9.355,3.284,19.634-1.634,22.924-11.022c1.064-3.033,20.888-59.577,31.949-91.269
			l-6.6,36.603h104.504l-6.42-36.603c11.149,31.936,30.389,88.283,31.436,91.269c3.284,9.371,13.545,14.31,22.924,11.022
			C473.32,311.765,478.255,301.5,474.969,292.125z M363.413,235.947c-2.993,0-5.419-2.426-5.419-5.419
			c0-2.993,2.426-5.419,5.419-5.419c2.993,0,5.419,2.427,5.419,5.419C368.832,233.52,366.407,235.947,363.413,235.947z
			 M363.413,209.837c-2.993,0-5.419-2.426-5.419-5.419c0-2.993,2.426-5.419,5.419-5.419c2.993,0,5.419,2.426,5.419,5.419
			C368.833,207.411,366.407,209.837,363.413,209.837z M367.914,181.325c-0.972,1.449-2.624,2.402-4.501,2.402
			c-2.993,0-5.419-2.426-5.419-5.419c0-0.5,0.089-0.975,0.217-1.433c0.632-2.292,2.709-3.985,5.203-3.985
			c2.993-0.001,5.419,2.426,5.419,5.419C368.833,179.425,368.493,180.462,367.914,181.325z"/>
	</g>
</g>
<g>
	<g>
		<path d="M397.239,28.094c-8.179-3.506-20.14-5.721-33.476-5.721c-13.335,0-25.297,2.215-33.476,5.721
			c-6.942,2.976-11.162,6.882-11.162,11.163c-0.002,0,8.484,35.155,8.492,35.186c8.631-4.924,21.497-8.052,35.877-8.052
			c14.668,0,27.766,3.252,36.396,8.347c0.008-0.031,8.511-35.481,8.511-35.481C408.401,34.976,404.181,31.07,397.239,28.094z"/>
	</g>
</g>
<g>
</g>
<g>
</g>
<g>
</g>
<g>
</g>
<g>
</g>
<g>
</g>
<g>
</g>
<g>
</g>
<g>
</g>
<g>
</g>
<g>
</g>
<g>
</g>
<g>
</g>
<g>
</g>
<g>
</g>
</svg>
